# xmcd CD database file
#
# Track frame offsets:
#	150
#	13758
#	28890
#	41796
#	57116
#	70665
#	82508
#	99660
#	115371
#	138208
#	152973
#	168780
#	182449
#	194130
#	217976
#	231797
#	262677
#	278049
#	296875
#	314450
#
# Disc length: 4445 seconds
#
# Revision: 9
# Processed by: cddbd v1.5.2PL0 Copyright (c) Steve Scherf et al.
# Submitted via: CDex 1.70beta2
#
DISCID=17115b14
DTITLE=Various Artist - Die Hit Giganten - Hits Der 70er  CD1
DYEAR=2006
DGENRE=Country
TTITLE0=Queen - Killer Queen
TTITLE1=Sweet - Fox On The Run
TTITLE2=Ike and Tina Turner - Nutbush City Limits
TTITLE3=Terry Jacks - Seasons In The Sun
TTITLE4=Sailor - Girls, Girls, Girls
TTITLE5=Gilbert O'Sullivan - Get Down
TTITLE6=Nick Straker - A Walk In The Park
TTITLE7=Bonnie Tyler - It's A Heartache
TTITLE8=The Guess Who - American Woman
TTITLE9=David Dundas - Jeans On
TTITLE10=La Bionda - One For You, One For Me
TTITLE11=Brotherhood Of Man - Save Your Kisses For Me
TTITLE12=Kincade - Dreams Are Ten A Penny
TTITLE13=10cc - I'm Mandy Fly Me
TTITLE14=Kool and The Gang - Jungle Boogie
TTITLE15=The Temptations - Papa Was A Rollin' Stone
TTITLE16=John Paul Young - Love Is In The Air
TTITLE17=Cliff Richard - We Don't Talk Anymore
TTITLE18=Elton John - Crocodile Rock
TTITLE19=Lou Reed - Walk On The Wild Side
EXTD=YEAR: 2006
EXTT0=
EXTT1=
EXTT2=
EXTT3=
EXTT4=
EXTT5=
EXTT6=
EXTT7=
EXTT8=
EXTT9=
EXTT10=
EXTT11=
EXTT12=
EXTT13=
EXTT14=
EXTT15=
EXTT16=
EXTT17=
EXTT18=
EXTT19=
PLAYORDER=
